<svg xmlns="http://www.w3.org/2000/svg" viewBox="0 0 900 692" width="900" height="692" font-family="'SF Mono','SFMono-Regular',ui-monospace,'DejaVu Sans Mono','Menlo','Consolas',monospace" role="img" aria-label="vansh@distributed-systems terminal — whoami, uptime, tech stack with brand icons, flex (Codeforces Expert, JEE Advanced), git log, and help with LinkedIn and email."><defs><filter id="cglow" x="-60%" y="-60%" width="220%" height="220%"><feGaussianBlur stdDeviation="3" result="b"/><feMerge><feMergeNode in="b"/><feMergeNode in="SourceGraphic"/></feMerge></filter><filter id="tglow" x="-30%" y="-30%" width="160%" height="160%"><feGaussianBlur stdDeviation="0.5" result="b"/><feMerge><feMergeNode in="b"/><feMergeNode in="SourceGraphic"/></feMerge></filter><clipPath id="frame"><rect x="12" y="12" width="876" height="668" rx="16"/></clipPath><pattern id="scan" width="3" height="3" patternUnits="userSpaceOnUse"><line x1="0" y1="0.5" x2="3" y2="0.5" stroke="#000" stroke-opacity="0.22" stroke-width="1"/></pattern><clipPath id="c0"><rect x="186" y="77" width="0" height="22"><animate attributeName="width" from="0" to="640" dur="0.5s" begin="0.5s" fill="freeze"/></rect></clipPath><clipPath id="c1"><rect x="186" y="141" width="0" height="22"><animate attributeName="width" from="0" to="640" dur="0.5s" begin="1.1s" fill="freeze"/></rect></clipPath><clipPath id="c2"><rect x="186" y="205" width="0" height="22"><animate attributeName="width" from="0" to="640" dur="0.5s" begin="1.7s" fill="freeze"/></rect></clipPath><clipPath id="c3"><rect x="186" y="439" width="0" height="22"><animate attributeName="width" from="0" to="640" dur="0.5s" begin="2.8s" fill="freeze"/></rect></clipPath><clipPath id="c4"><rect x="186" y="503" width="0" height="22"><animate attributeName="width" from="0" to="640" dur="0.5s" begin="3.4s" fill="freeze"/></rect></clipPath><clipPath id="c5"><rect x="186" y="567" width="0" height="22"><animate attributeName="width" from="0" to="640" dur="0.5s" begin="4.0s" fill="freeze"/></rect></clipPath></defs><rect x="0" y="0" width="900" height="692" fill="#070B09"/><rect x="12" y="12" width="876" height="668" rx="16" fill="#080D0A" stroke="#15291C" stroke-width="1.5"/><rect x="12" y="12" width="876" height="668" rx="16" fill="none" stroke="#1F7048" stroke-width="1.5" opacity="0.25"/><rect x="12" y="12" width="876" height="668" rx="16" fill="none" stroke="#7CFFB8" stroke-width="2.6" stroke-linecap="round" filter="url(#cglow)" pathLength="100" stroke-dasharray="16 84" stroke-dashoffset="100"><animate attributeName="stroke-dashoffset" values="100;0" dur="7s" repeatCount="indefinite"/></rect><rect x="12" y="12" width="876" height="668" rx="16" fill="none" stroke="#2FBF73" stroke-width="2.2" stroke-linecap="round" filter="url(#cglow)" pathLength="100" stroke-dasharray="8 92" stroke-dashoffset="55" opacity="0.7"><animate attributeName="stroke-dashoffset" values="55;-45" dur="7s" repeatCount="indefinite"/></rect><g opacity="0"><animate attributeName="opacity" from="0" to="1" dur="0.4s" begin="0.15s" fill="freeze"/><circle cx="46" cy="41" r="5.5" fill="#E05D5D"/><circle cx="66" cy="41" r="5.5" fill="#E0B24D"/><circle cx="86" cy="41" r="5.5" fill="#46E08B"/><text x="450" y="46" font-size="13" fill="#2E9D63" text-anchor="middle">vansh@distributed-systems: ~</text><text x="856" y="46" font-size="12.5" fill="#1C6B45" text-anchor="end">— zsh · 80x24</text></g><line x1="30" y1="60" x2="870" y2="60" stroke="#13261A" stroke-width="1"/><g filter="url(#tglow)" font-size="15"><g opacity="0"><animate attributeName="opacity" from="0" to="1" dur="0.3s" begin="0.5s" fill="freeze"/><text x="44" y="92"><tspan fill="#43E08A">vansh</tspan><tspan fill="#2E9D63">@dsys</tspan><tspan fill="#1C6B45"> ~ </tspan><tspan fill="#8CFFC0">%</tspan></text><g clip-path="url(#c0)"><text x="186" y="92" fill="#D8FFEC" font-weight="700">whoami</text></g><g opacity="0"><animate attributeName="opacity" from="0" to="1" dur="0.4s" begin="1.05s" fill="freeze"/><text x="48" y="118" fill="#1C6B45">&#8594;</text><text x="70" y="118"><tspan fill="#43E08A">vansh gupta — i build backend systems that </tspan><tspan fill="#8CFFC0">stay up when things break</tspan></text></g></g><g opacity="0"><animate attributeName="opacity" from="0" to="1" dur="0.3s" begin="1.1s" fill="freeze"/><text x="44" y="156"><tspan fill="#43E08A">vansh</tspan><tspan fill="#2E9D63">@dsys</tspan><tspan fill="#1C6B45"> ~ </tspan><tspan fill="#8CFFC0">%</tspan></text><g clip-path="url(#c1)"><text x="186" y="156" fill="#D8FFEC" font-weight="700">uptime</text></g><g opacity="0"><animate attributeName="opacity" from="0" to="1" dur="0.4s" begin="1.65s" fill="freeze"/><text x="48" y="182" fill="#1C6B45">&#8594;</text><text x="70" y="182"><tspan fill="#43E08A">2y running · ex-Futures First </tspan><tspan fill="#2E9D63">(C++, low-latency trading)</tspan><tspan fill="#43E08A"> &#8594; now @ </tspan><tspan fill="#8CFFC0">Smartsheet</tspan></text></g></g><g opacity="0"><animate attributeName="opacity" from="0" to="1" dur="0.3s" begin="1.7s" fill="freeze"/><text x="44" y="220"><tspan fill="#43E08A">vansh</tspan><tspan fill="#2E9D63">@dsys</tspan><tspan fill="#1C6B45"> ~ </tspan><tspan fill="#8CFFC0">%</tspan></text><g clip-path="url(#c2)"><text x="186" y="220" fill="#D8FFEC" font-weight="700">tech stack</text></g><g opacity="0"><animate attributeName="opacity" from="0" to="1" dur="0.5s" begin="2.3s" fill="freeze"/><text x="64" y="248" font-size="11" letter-spacing="1.5" fill="#1C6B45">LANGUAGES</text><g transform="translate(64,262) scale(0.1406)" fill="#43E08A"><path d="M47.617 98.12c-19.192 5.362 11.677 16.439 36.115 5.969-4.003-1.556-6.874-3.351-6.874-3.351-10.897 2.06-15.952 2.222-25.844 1.092-8.164-.935-3.397-3.71-3.397-3.71zm33.189-10.46c-14.444 2.779-22.787 2.69-33.354 1.6-8.171-.845-2.822-4.805-2.822-4.805-21.137 7.016 11.767 14.977 41.309 6.336-3.14-1.106-5.133-3.131-5.133-3.131zm11.319-60.575c.001 0-42.731 10.669-22.323 34.187 6.024 6.935-1.58 13.17-1.58 13.17s15.289-7.891 8.269-17.777c-6.559-9.215-11.587-13.793 15.634-29.58zm9.998 81.144s3.529 2.91-3.888 5.159c-14.102 4.272-58.706 5.56-71.095.171-4.45-1.938 3.899-4.625 6.526-5.192 2.739-.593 4.303-.485 4.303-.485-4.952-3.487-32.013 6.85-13.742 9.815 49.821 8.076 90.817-3.637 77.896-9.468zM85 77.896c2.395-1.634 5.703-3.053 5.703-3.053s-9.424 1.685-18.813 2.474c-11.494.964-23.823 1.154-30.012.326-14.652-1.959 8.033-7.348 8.033-7.348s-8.812-.596-19.644 4.644C17.455 81.134 61.958 83.958 85 77.896zm5.609 15.145c-.108.29-.468.616-.468.616 31.273-8.221 19.775-28.979 4.822-23.725-1.312.464-2 1.543-2 1.543s.829-.334 2.678-.72c7.559-1.575 18.389 10.119-5.032 22.286zM64.181 70.069c-4.614-10.429-20.26-19.553.007-35.559C89.459 14.563 76.492 1.587 76.492 1.587c5.23 20.608-18.451 26.833-26.999 39.667-5.821 8.745 2.857 18.142 14.688 28.815zm27.274 51.748c-19.187 3.612-42.854 3.191-56.887.874 0 0 2.874 2.38 17.646 3.331 22.476 1.437 57-.8 57.816-11.436.001 0-1.57 4.032-18.575 7.231z"/></g><text x="90" y="276" fill="#43E08A">java</text><g transform="translate(64,296) scale(0.7500)" fill="#43E08A"><path d="M22.394 6c-.167-.29-.398-.543-.652-.69L12.926.22c-.509-.294-1.34-.294-1.848 0L2.26 5.31c-.508.293-.923 1.013-.923 1.6v10.18c0 .294.104.62.271.91.167.29.398.543.652.69l8.816 5.09c.508.293 1.34.293 1.848 0l8.816-5.09c.254-.147.485-.4.652-.69.167-.29.27-.616.27-.91V6.91c.003-.294-.1-.62-.268-.91zM12 19.11c-3.92 0-7.109-3.19-7.109-7.11 0-3.92 3.19-7.11 7.11-7.11a7.133 7.133 0 016.156 3.553l-3.076 1.78a3.567 3.567 0 00-3.08-1.78A3.56 3.56 0 008.444 12 3.56 3.56 0 0012 15.555a3.57 3.57 0 003.08-1.778l3.078 1.78A7.135 7.135 0 0112 19.11zm7.11-6.715h-.79v.79h-.79v-.79h-.79v-.79h.79v-.79h.79v.79h.79zm2.962 0h-.79v.79h-.79v-.79h-.79v-.79h.79v-.79h.79v.79h.79z"/></g><text x="90" y="310" fill="#43E08A">c++</text><g transform="translate(64,330) scale(0.7500)" fill="#43E08A"><path d="M14.25.18l.9.2.73.26.59.3.45.32.34.34.25.34.16.33.1.3.04.26.02.2-.01.13V8.5l-.05.63-.13.55-.21.46-.26.38-.3.31-.33.25-.35.19-.35.14-.33.1-.3.07-.26.04-.21.02H8.77l-.69.05-.59.14-.5.22-.41.27-.33.32-.27.35-.2.36-.15.37-.1.35-.07.32-.04.27-.02.21v3.06H3.17l-.21-.03-.28-.07-.32-.12-.35-.18-.36-.26-.36-.36-.35-.46-.32-.59-.28-.73-.21-.88-.14-1.05-.05-1.23.06-1.22.16-1.04.24-.87.32-.71.36-.57.4-.44.42-.33.42-.24.4-.16.36-.1.32-.05.24-.01h.16l.06.01h8.16v-.83H6.18l-.01-2.75-.02-.37.05-.34.11-.31.17-.28.25-.26.31-.23.38-.2.44-.18.51-.15.58-.12.64-.1.71-.06.77-.04.84-.02 1.27.05zm-6.3 1.98l-.23.33-.08.41.08.41.23.34.33.22.41.09.41-.09.33-.22.23-.34.08-.41-.08-.41-.23-.33-.33-.22-.41-.09-.41.09zm13.09 3.95l.28.06.32.12.35.18.36.27.36.35.35.47.32.59.28.73.21.88.14 1.04.05 1.23-.06 1.23-.16 1.04-.24.86-.32.71-.36.57-.4.45-.42.33-.42.24-.4.16-.36.09-.32.05-.24.02-.16-.01h-8.22v.82h5.84l.01 2.76.02.36-.05.34-.11.31-.17.29-.25.25-.31.24-.38.2-.44.17-.51.15-.58.13-.64.09-.71.07-.77.04-.84.01-1.27-.04-1.07-.14-.9-.2-.73-.25-.59-.3-.45-.33-.34-.34-.25-.34-.16-.33-.1-.3-.04-.25-.02-.2.01-.13v-5.34l.05-.64.13-.54.21-.46.26-.38.3-.32.33-.24.35-.2.35-.14.33-.1.3-.06.26-.04.21-.02.13-.01h5.84l.69-.05.59-.14.5-.21.41-.28.33-.32.27-.35.2-.36.15-.36.1-.35.07-.32.04-.28.02-.21V6.07h2.09l.14.01zm-6.47 14.25l-.23.33-.08.41.08.41.23.33.33.23.41.08.41-.08.33-.23.23-.33.08-.41-.08-.41-.23-.33-.33-.23-.41-.08-.41.08z"/></g><text x="90" y="344" fill="#43E08A">python</text><text x="266" y="248" font-size="11" letter-spacing="1.5" fill="#1C6B45">BACKEND</text><g transform="translate(266,262) scale(0.7500)" fill="#43E08A"><path d="m23.693 10.7058-4.73-8.1844c-.4094-.7106-1.4166-1.2942-2.2402-1.2942H7.2725c-.819 0-1.8308.5836-2.2402 1.2942L.307 10.7058c-.4095.7106-.4095 1.873 0 2.5837l4.7252 8.189c.4094.7107 1.4166 1.2943 2.2402 1.2943h9.455c.819 0 1.826-.5836 2.2402-1.2942l4.7252-8.189c.4095-.7107.4095-1.8732 0-2.5838zM10.9763 5.7547c0-.5365.4377-.9742.9742-.9742s.9742.4377.9742.9742v5.8217c0 .5366-.4377.9742-.9742.9742s-.9742-.4376-.9742-.9742zm.9742 12.4294c-3.6427 0-6.6077-2.965-6.6077-6.6077.0047-2.0896.993-4.0521 2.6685-5.304a.8657.8657 0 0 1 1.2142.1788.8657.8657 0 0 1-.1788 1.2143c-2.1602 1.6048-2.612 4.6592-1.0072 6.8194 1.6049 2.1603 4.6593 2.612 6.8195 1.0072 1.2378-.9177 1.9673-2.372 1.9673-3.9157a4.8972 4.8972 0 0 0-1.9861-3.925c-.386-.2824-.466-.8284-.1836-1.2143.2824-.386.8283-.466 1.2143-.1835 1.6895 1.2471 2.6826 3.2238 2.6873 5.3228 0 3.6474-2.965 6.6077-6.6077 6.6077z"/></g><text x="292" y="276" fill="#43E08A">spring boot</text><g transform="translate(266,296) scale(0.7500)" fill="#43E08A"><path d="M9.71 2.136a1.43 1.43 0 0 0-2.047 0h-.007a1.48 1.48 0 0 0-.421 1.042c0 .41.161.777.422 1.039l.007.007c.257.264.616.426 1.019.426.404 0 .766-.162 1.027-.426l.003-.007c.261-.262.421-.629.421-1.039 0-.408-.159-.777-.421-1.042H9.71zM8.683 22.295c.404 0 .766-.167 1.027-.429l.003-.008c.261-.261.421-.631.421-1.036 0-.41-.159-.778-.421-1.044H9.71a1.42 1.42 0 0 0-1.027-.432 1.4 1.4 0 0 0-1.02.432h-.007c-.26.266-.422.634-.422 1.044 0 .406.161.775.422 1.036l.007.008c.258.262.617.429 1.02.429zm7.89-4.462c.359-.096.683-.33.882-.684l.027-.052a1.47 1.47 0 0 0 .114-1.067 1.454 1.454 0 0 0-.675-.896l-.021-.014a1.425 1.425 0 0 0-1.078-.132c-.36.091-.684.335-.881.686-.2.349-.241.75-.146 1.119.099.363.33.691.675.896h.002c.346.203.737.239 1.101.144zm-6.405-7.342a2.083 2.083 0 0 0-1.485-.627c-.58 0-1.103.242-1.482.627-.378.385-.612.916-.612 1.507s.233 1.124.612 1.514a2.08 2.08 0 0 0 2.967 0c.379-.39.612-.923.612-1.514s-.233-1.122-.612-1.507zm-.835-2.51c.843.141 1.6.552 2.178 1.144h.004c.092.093.182.196.265.299l1.446-.851a3.176 3.176 0 0 1-.047-1.808 3.149 3.149 0 0 1 1.456-1.926l.025-.016a3.062 3.062 0 0 1 2.345-.306c.77.21 1.465.721 1.898 1.482v.002c.431.757.518 1.626.313 2.408a3.145 3.145 0 0 1-1.456 1.928l-.198.118h-.02a3.095 3.095 0 0 1-2.154.201 3.127 3.127 0 0 1-1.514-.944l-1.444.848a4.162 4.162 0 0 1 0 2.879l1.444.846c.413-.47.939-.789 1.514-.944a3.041 3.041 0 0 1 2.371.319l.048.023v.002a3.17 3.17 0 0 1 1.408 1.906 3.215 3.215 0 0 1-.313 2.405l-.026.053-.003-.005a3.147 3.147 0 0 1-1.867 1.436 3.096 3.096 0 0 1-2.371-.318v-.006a3.156 3.156 0 0 1-1.456-1.927 3.175 3.175 0 0 1 .047-1.805l-1.446-.848a3.905 3.905 0 0 1-.265.294l-.004.005a3.938 3.938 0 0 1-2.178 1.138v1.699a3.09 3.09 0 0 1 1.56.862l.002.004c.565.572.914 1.368.914 2.243 0 .873-.35 1.664-.914 2.239l-.002.009a3.1 3.1 0 0 1-2.21.931 3.1 3.1 0 0 1-2.206-.93h-.002v-.009a3.186 3.186 0 0 1-.916-2.239c0-.875.35-1.672.916-2.243v-.004h.002a3.1 3.1 0 0 1 1.558-.862v-1.699a3.926 3.926 0 0 1-2.176-1.138l-.006-.005a4.098 4.098 0 0 1-1.173-2.874c0-1.122.452-2.136 1.173-2.872h.006a3.947 3.947 0 0 1 2.176-1.144V6.289a3.137 3.137 0 0 1-1.558-.864h-.002v-.004a3.192 3.192 0 0 1-.916-2.243c0-.871.35-1.669.916-2.243l.002-.002A3.084 3.084 0 0 1 8.683 0c.861 0 1.641.355 2.21.932v.002h.002c.565.574.914 1.372.914 2.243 0 .876-.35 1.667-.914 2.243l-.002.005a3.142 3.142 0 0 1-1.56.864v1.692zm8.121-1.129l-.012-.019a1.452 1.452 0 0 0-.87-.668 1.43 1.43 0 0 0-1.103.146h.002c-.347.2-.58.529-.677.896-.095.365-.054.768.146 1.119l.007.009c.2.347.519.579.874.673.357.103.755.059 1.098-.144l.019-.009a1.47 1.47 0 0 0 .657-.885 1.493 1.493 0 0 0-.141-1.118"/></g><text x="292" y="310" fill="#43E08A">kafka</text><text x="470" y="248" font-size="11" letter-spacing="1.5" fill="#1C6B45">CLOUD / DEVOPS</text><g transform="translate(470,262) scale(0.7500)" stroke="#43E08A" stroke-width="2.3" fill="none" stroke-linecap="round" stroke-linejoin="round"><path d="M2.5 12 Q12 19.5 21 11.5"/><path d="M16.6 11.2 L21.2 11.2 L20 16"/></g><text x="496" y="276" fill="#43E08A">aws</text><g transform="translate(470,296) scale(0.7500)" fill="#43E08A"><path d="M13.983 11.078h2.119a.186.186 0 00.186-.185V9.006a.186.186 0 00-.186-.186h-2.119a.185.185 0 00-.185.185v1.888c0 .102.083.185.185.185m-2.954-5.43h2.118a.186.186 0 00.186-.186V3.574a.186.186 0 00-.186-.185h-2.118a.185.185 0 00-.185.185v1.888c0 .102.082.185.185.185m0 2.716h2.118a.187.187 0 00.186-.186V6.29a.186.186 0 00-.186-.185h-2.118a.185.185 0 00-.185.185v1.887c0 .102.082.185.185.186m-2.93 0h2.12a.186.186 0 00.184-.186V6.29a.185.185 0 00-.185-.185H8.1a.185.185 0 00-.185.185v1.887c0 .102.083.185.185.186m-2.964 0h2.119a.186.186 0 00.185-.186V6.29a.185.185 0 00-.185-.185H5.136a.186.186 0 00-.186.185v1.887c0 .102.084.185.186.186m5.893 2.715h2.118a.186.186 0 00.186-.185V9.006a.186.186 0 00-.186-.186h-2.118a.185.185 0 00-.185.185v1.888c0 .102.082.185.185.185m-2.93 0h2.12a.185.185 0 00.184-.185V9.006a.185.185 0 00-.184-.186h-2.12a.185.185 0 00-.184.185v1.888c0 .102.083.185.185.185m-2.964 0h2.119a.185.185 0 00.185-.185V9.006a.185.185 0 00-.184-.186h-2.12a.186.186 0 00-.186.186v1.887c0 .102.084.185.186.185m-2.92 0h2.12a.185.185 0 00.184-.185V9.006a.185.185 0 00-.184-.186h-2.12a.185.185 0 00-.184.185v1.888c0 .102.082.185.185.185M23.763 9.89c-.065-.051-.672-.51-1.954-.51-.338.001-.676.03-1.01.087-.248-1.7-1.653-2.53-1.716-2.566l-.344-.199-.226.327c-.284.438-.49.922-.612 1.43-.23.97-.09 1.882.403 2.661-.595.332-1.55.413-1.744.42H.751a.751.751 0 00-.75.748 11.376 11.376 0 00.692 4.062c.545 1.428 1.355 2.48 2.41 3.124 1.18.723 3.1 1.137 5.275 1.137.983.003 1.963-.086 2.93-.266a12.248 12.248 0 003.823-1.389c.98-.567 1.86-1.288 2.61-2.136 1.252-1.418 1.998-2.997 2.553-4.4h.221c1.372 0 2.215-.549 2.68-1.009.309-.293.55-.65.707-1.046l.098-.288Z"/></g><text x="496" y="310" fill="#43E08A">docker</text><g transform="translate(470,330) scale(0.7500)" fill="#43E08A"><path d="M10.204 14.35l.007.01-.999 2.413a5.171 5.171 0 0 1-2.075-2.597l2.578-.437.004.005a.44.44 0 0 1 .484.606zm-.833-2.129a.44.44 0 0 0 .173-.756l.002-.011L7.585 9.7a5.143 5.143 0 0 0-.73 3.255l2.514-.725.002-.009zm1.145-1.98a.44.44 0 0 0 .699-.337l.01-.005.15-2.62a5.144 5.144 0 0 0-3.01 1.442l2.147 1.523.004-.002zm.76 2.75l.723.349.722-.347.18-.78-.5-.623h-.804l-.5.623.179.779zm1.5-3.095a.44.44 0 0 0 .7.336l.008.003 2.134-1.513a5.188 5.188 0 0 0-2.992-1.442l.148 2.615.002.001zm10.876 5.97l-5.773 7.181a1.6 1.6 0 0 1-1.248.594l-9.261.003a1.6 1.6 0 0 1-1.247-.596l-5.776-7.18a1.583 1.583 0 0 1-.307-1.34L2.1 5.573c.108-.47.425-.864.863-1.073L11.305.513a1.606 1.606 0 0 1 1.385 0l8.345 3.985c.438.209.755.604.863 1.073l2.062 8.955c.108.47-.005.963-.308 1.34zm-3.289-2.057c-.042-.01-.103-.026-.145-.034-.174-.033-.315-.025-.479-.038-.35-.037-.638-.067-.895-.148-.105-.04-.18-.165-.216-.216l-.201-.059a6.45 6.45 0 0 0-.105-2.332 6.465 6.465 0 0 0-.936-2.163c.052-.047.15-.133.177-.159.008-.09.001-.183.094-.282.197-.185.444-.338.743-.522.142-.084.273-.137.415-.242.032-.024.076-.062.11-.089.24-.191.295-.52.123-.736-.172-.216-.506-.236-.745-.045-.034.027-.08.062-.111.088-.134.116-.217.23-.33.35-.246.25-.45.458-.673.609-.097.056-.239.037-.303.033l-.19.135a6.545 6.545 0 0 0-4.146-2.003l-.012-.223c-.065-.062-.143-.115-.163-.25-.022-.268.015-.557.057-.905.023-.163.061-.298.068-.475.001-.04-.001-.099-.001-.142 0-.306-.224-.555-.5-.555-.275 0-.499.249-.499.555l.001.014c0 .041-.002.092 0 .128.006.177.044.312.067.475.042.348.078.637.056.906a.545.545 0 0 1-.162.258l-.012.211a6.424 6.424 0 0 0-4.166 2.003 8.373 8.373 0 0 1-.18-.128c-.09.012-.18.04-.297-.029-.223-.15-.427-.358-.673-.608-.113-.12-.195-.234-.329-.349-.03-.026-.077-.062-.111-.088a.594.594 0 0 0-.348-.132.481.481 0 0 0-.398.176c-.172.216-.117.546.123.737l.007.005.104.083c.142.105.272.159.414.242.299.185.546.338.743.522.076.082.09.226.1.288l.16.143a6.462 6.462 0 0 0-1.02 4.506l-.208.06c-.055.072-.133.184-.215.217-.257.081-.546.11-.895.147-.164.014-.305.006-.48.039-.037.007-.09.02-.133.03l-.004.002-.007.002c-.295.071-.484.342-.423.608.061.267.349.429.645.365l.007-.001.01-.003.129-.029c.17-.046.294-.113.448-.172.33-.118.604-.217.87-.256.112-.009.23.069.288.101l.217-.037a6.5 6.5 0 0 0 2.88 3.596l-.09.218c.033.084.069.199.044.282-.097.252-.263.517-.452.813-.091.136-.185.242-.268.399-.02.037-.045.095-.064.134-.128.275-.034.591.213.71.248.12.556-.007.69-.282v-.002c.02-.039.046-.09.062-.127.07-.162.094-.301.144-.458.132-.332.205-.68.387-.897.05-.06.13-.082.215-.105l.113-.205a6.453 6.453 0 0 0 4.609.012l.106.192c.086.028.18.042.256.155.136.232.229.507.342.84.05.156.074.295.145.457.016.037.043.09.062.129.133.276.442.402.69.282.247-.118.341-.435.213-.71-.02-.039-.045-.096-.065-.134-.083-.156-.177-.261-.268-.398-.19-.296-.346-.541-.443-.793-.04-.13.007-.21.038-.294-.018-.022-.059-.144-.083-.202a6.499 6.499 0 0 0 2.88-3.622c.064.01.176.03.213.038.075-.05.144-.114.28-.104.266.039.54.138.87.256.154.06.277.128.448.173.036.01.088.019.13.028l.009.003.007.001c.297.064.584-.098.645-.365.06-.266-.128-.537-.423-.608zM16.4 9.701l-1.95 1.746v.005a.44.44 0 0 0 .173.757l.003.01 2.526.728a5.199 5.199 0 0 0-.108-1.674A5.208 5.208 0 0 0 16.4 9.7zm-4.013 5.325a.437.437 0 0 0-.404-.232.44.44 0 0 0-.372.233h-.002l-1.268 2.292a5.164 5.164 0 0 0 3.326.003l-1.27-2.296h-.01zm1.888-1.293a.44.44 0 0 0-.27.036.44.44 0 0 0-.214.572l-.003.004 1.01 2.438a5.15 5.15 0 0 0 2.081-2.615l-2.6-.44-.004.005z"/></g><text x="496" y="344" fill="#43E08A">k8s</text><g transform="translate(470,364) scale(0.7500)" fill="#43E08A"><path d="M1.44 0v7.575l6.561 3.79V3.787zm21.12 4.227l-6.561 3.791v7.574l6.56-3.787zM8.72 4.23v7.575l6.561 3.787V8.018zm0 8.405v7.575L15.28 24v-7.578z"/></g><text x="496" y="378" fill="#43E08A">terraform</text><text x="700" y="248" font-size="11" letter-spacing="1.5" fill="#1C6B45">DATA / OBS</text><g transform="translate(700,262) scale(0.7500)" fill="#43E08A"><path d="M16.405 5.501c-.115 0-.193.014-.274.033v.013h.014c.054.104.146.18.214.273.054.107.1.214.154.32l.014-.015c.094-.066.14-.172.14-.333-.04-.047-.046-.094-.08-.14-.04-.067-.126-.1-.18-.153zM5.77 18.695h-.927a50.854 50.854 0 00-.27-4.41h-.008l-1.41 4.41H2.45l-1.4-4.41h-.01a72.892 72.892 0 00-.195 4.41H0c.055-1.966.192-3.81.41-5.53h1.15l1.335 4.064h.008l1.347-4.064h1.095c.242 2.015.384 3.86.428 5.53zm4.017-4.08c-.378 2.045-.876 3.533-1.492 4.46-.482.716-1.01 1.073-1.583 1.073-.153 0-.34-.046-.566-.138v-.494c.11.017.24.026.386.026.268 0 .483-.075.647-.222.197-.18.295-.382.295-.605 0-.155-.077-.47-.23-.944L6.23 14.615h.91l.727 2.36c.164.536.233.91.205 1.123.4-1.064.678-2.227.835-3.483zm12.325 4.08h-2.63v-5.53h.885v4.85h1.745zm-3.32.135l-1.016-.5c.09-.076.177-.158.255-.25.433-.506.648-1.258.648-2.253 0-1.83-.718-2.746-2.155-2.746-.704 0-1.254.232-1.65.697-.43.508-.646 1.256-.646 2.245 0 .972.19 1.686.574 2.14.35.41.877.615 1.583.615.264 0 .506-.033.725-.098l1.325.772.36-.622zM15.5 17.588c-.225-.36-.337-.94-.337-1.736 0-1.393.424-2.09 1.27-2.09.443 0 .77.167.977.5.224.362.336.936.336 1.723 0 1.404-.424 2.108-1.27 2.108-.445 0-.77-.167-.978-.5zm-1.658-.425c0 .47-.172.856-.516 1.156-.344.3-.803.45-1.384.45-.543 0-1.064-.172-1.573-.515l.237-.476c.438.22.833.328 1.19.328.332 0 .593-.073.783-.22a.754.754 0 00.3-.615c0-.33-.23-.61-.648-.845-.388-.213-1.163-.657-1.163-.657-.422-.307-.632-.636-.632-1.177 0-.45.157-.81.47-1.085.315-.278.72-.415 1.22-.415.512 0 .98.136 1.4.41l-.213.476a2.726 2.726 0 00-1.064-.23c-.283 0-.502.068-.654.206a.685.685 0 00-.248.524c0 .328.234.61.666.85.393.215 1.187.67 1.187.67.433.305.648.63.648 1.168zm9.382-5.852c-.535-.014-.95.04-1.297.188-.1.04-.26.04-.274.167.055.053.063.14.11.214.08.134.218.313.346.407.14.11.28.216.427.31.26.16.555.255.81.416.145.094.293.213.44.313.073.05.12.14.214.172v-.02c-.046-.06-.06-.147-.105-.214-.067-.067-.134-.127-.2-.193a3.223 3.223 0 00-.695-.675c-.214-.146-.682-.35-.77-.595l-.013-.014c.146-.013.32-.066.46-.106.227-.06.435-.047.67-.106.106-.027.213-.06.32-.094v-.06c-.12-.12-.21-.283-.334-.395a8.867 8.867 0 00-1.104-.823c-.21-.134-.476-.22-.697-.334-.08-.04-.214-.06-.26-.127-.12-.146-.19-.34-.275-.514a17.69 17.69 0 01-.547-1.163c-.12-.262-.193-.523-.34-.763-.69-1.137-1.437-1.826-2.586-2.5-.247-.14-.543-.2-.856-.274-.167-.008-.334-.02-.5-.027-.11-.047-.216-.174-.31-.235-.38-.24-1.364-.76-1.644-.072-.18.434.267.862.422 1.082.115.153.26.328.34.5.047.116.06.235.107.356.106.294.207.622.347.897.073.14.153.287.247.413.054.073.146.107.167.227-.094.136-.1.334-.154.5-.24.757-.146 1.693.194 2.25.107.166.362.534.703.393.3-.12.234-.5.32-.835.02-.08.007-.133.048-.187v.015c.094.188.188.367.274.555.206.328.566.668.867.895.16.12.287.328.487.402v-.02h-.015c-.043-.058-.1-.086-.154-.133a3.445 3.445 0 01-.35-.4 8.76 8.76 0 01-.747-1.218c-.11-.21-.202-.436-.29-.643-.04-.08-.04-.2-.107-.24-.1.146-.247.273-.32.453-.127.288-.14.642-.188 1.01-.027.007-.014 0-.027.014-.214-.052-.287-.274-.367-.46-.2-.475-.233-1.238-.06-1.785.047-.14.247-.582.167-.716-.042-.127-.174-.2-.247-.303a2.478 2.478 0 01-.24-.427c-.16-.374-.24-.788-.414-1.162-.08-.173-.22-.354-.334-.513-.127-.18-.267-.307-.368-.52-.033-.073-.08-.194-.027-.274.014-.054.042-.075.094-.09.088-.072.335.022.422.062.247.1.455.194.662.334.094.066.195.193.315.226h.14c.214.047.455.014.655.073.355.114.675.28.962.46a5.953 5.953 0 012.085 2.286c.08.154.115.295.188.455.14.33.313.663.455.982.14.315.275.636.476.897.1.14.502.213.682.286.133.06.34.115.46.188.23.14.454.3.67.454.11.076.443.243.463.378z"/></g><text x="726" y="276" fill="#43E08A">mysql</text><g transform="translate(700,296) scale(0.7500)" fill="#43E08A"><path d="M19.57 17.04l-1.997-1.316-1.665 2.782-1.937-.567-1.706 2.604.087.82 9.274-1.71-.538-5.794zm-8.649-2.498l1.488-.204c.241.108.409.15.697.223.45.117.97.23 1.741-.16.18-.088.553-.43.704-.625l6.096-1.106.622 7.527-10.444 1.882zm11.325-2.712l-.602.115L20.488 0 .789 2.285l2.427 19.693 2.306-.334c-.184-.263-.471-.581-.96-.989-.68-.564-.44-1.522-.039-2.127.53-1.022 3.26-2.322 3.106-3.956-.056-.594-.15-1.368-.702-1.898-.02.22.017.432.017.432s-.227-.289-.34-.683c-.112-.15-.2-.199-.319-.4-.085.233-.073.503-.073.503s-.186-.437-.216-.807c-.11.166-.137.48-.137.48s-.241-.69-.186-1.062c-.11-.323-.436-.965-.343-2.424.6.421 1.924.321 2.44-.439.171-.251.288-.939-.086-2.293-.24-.868-.835-2.16-1.066-2.651l-.028.02c.122.395.374 1.223.47 1.625.293 1.218.372 1.642.234 2.204-.116.488-.397.808-1.107 1.165-.71.358-1.653-.514-1.713-.562-.69-.55-1.224-1.447-1.284-1.883-.062-.477.275-.763.445-1.153-.243.07-.514.192-.514.192s.323-.334.722-.624c.165-.109.262-.178.436-.323a9.762 9.762 0 0 0-.456.003s.42-.227.855-.392c-.318-.014-.623-.003-.623-.003s.937-.419 1.678-.727c.509-.208 1.006-.147 1.286.257.367.53.752.817 1.569.996.501-.223.653-.337 1.284-.509.554-.61.99-.688.99-.688s-.216.198-.274.51c.314-.249.66-.455.66-.455s-.134.164-.259.426l.03.043c.366-.22.797-.394.797-.394s-.123.156-.268.358c.277-.002.838.012 1.056.037 1.285.028 1.552-1.374 2.045-1.55.618-.22.894-.353 1.947.68.903.888 1.609 2.477 1.259 2.833-.294.295-.874-.115-1.516-.916a3.466 3.466 0 0 1-.716-1.562 1.533 1.533 0 0 0-.497-.85s.23.51.23.96c0 .246.03 1.165.424 1.68-.039.076-.057.374-.1.43-.458-.554-1.443-.95-1.604-1.067.544.445 1.793 1.468 2.273 2.449.453.927.186 1.777.416 1.997.065.063.976 1.197 1.15 1.767.306.994.019 2.038-.381 2.685l-1.117.174c-.163-.045-.273-.068-.42-.153.08-.143.241-.5.243-.572l-.063-.111c-.348.492-.93.97-1.414 1.245-.633.359-1.363.304-1.838.156-1.348-.415-2.623-1.327-2.93-1.566 0 0-.01.191.048.234.34.383 1.119 1.077 1.872 1.56l-1.605.177.759 5.908c-.337.048-.39.071-.757.124-.325-1.147-.946-1.895-1.624-2.332-.599-.384-1.424-.47-2.214-.314l-.05.059a2.851 2.851 0 0 1 1.863.444c.654.413 1.181 1.481 1.375 2.124.248.822.42 1.7-.248 2.632-.476.662-1.864 1.028-2.986.237.3.481.705.876 1.25.95.809.11 1.577-.03 2.106-.574.452-.464.69-1.434.628-2.456l.714-.104.258 1.834 11.827-1.424zM15.05 6.848c-.034.075-.085.125-.007.37l.004.014.013.032.032.073c.14.287.295.558.552.696.067-.011.136-.019.207-.023.242-.01.395.028.492.08.009-.048.01-.119.005-.222-.018-.364.072-.982-.626-1.308-.264-.122-.634-.084-.757.068a.302.302 0 0 1 .058.013c.186.066.06.13.027.207m1.958 3.392c-.092-.05-.52-.03-.821.005-.574.068-1.193.267-1.328.372-.247.191-.135.523.047.66.511.382.96.638 1.432.575.29-.038.546-.497.728-.914.124-.288.124-.598-.058-.698m-5.077-2.942c.162-.154-.805-.355-1.556.156-.554.378-.571 1.187-.041 1.646.053.046.096.078.137.104a4.77 4.77 0 0 1 1.396-.412c.113-.125.243-.345.21-.745-.044-.542-.455-.456-.146-.749"/></g><text x="726" y="310" fill="#43E08A">datadog</text></g></g><g opacity="0"><animate attributeName="opacity" from="0" to="1" dur="0.3s" begin="2.8s" fill="freeze"/><text x="44" y="454"><tspan fill="#43E08A">vansh</tspan><tspan fill="#2E9D63">@dsys</tspan><tspan fill="#1C6B45"> ~ </tspan><tspan fill="#8CFFC0">%</tspan></text><g clip-path="url(#c3)"><text x="186" y="454" fill="#D8FFEC" font-weight="700">./flex --quietly</text></g><g opacity="0"><animate attributeName="opacity" from="0" to="1" dur="0.4s" begin="3.35s" fill="freeze"/><text x="48" y="480" fill="#1C6B45">&#8594;</text><text x="70" y="480"><tspan fill="#43E08A">codeforces </tspan><tspan fill="#8CFFC0">expert</tspan><tspan fill="#43E08A"> · </tspan><tspan fill="#8CFFC0">1600+</tspan><tspan fill="#43E08A"> (rank #850)   ·   jee advanced · </tspan><tspan fill="#8CFFC0">AIR 9684</tspan><tspan fill="#43E08A"> / 1M+</tspan></text></g></g><g opacity="0"><animate attributeName="opacity" from="0" to="1" dur="0.3s" begin="3.4s" fill="freeze"/><text x="44" y="518"><tspan fill="#43E08A">vansh</tspan><tspan fill="#2E9D63">@dsys</tspan><tspan fill="#1C6B45"> ~ </tspan><tspan fill="#8CFFC0">%</tspan></text><g clip-path="url(#c4)"><text x="186" y="518" fill="#D8FFEC" font-weight="700">git log --oneline --recent</text></g><g opacity="0"><animate attributeName="opacity" from="0" to="1" dur="0.4s" begin="3.95s" fill="freeze"/><text x="48" y="544" fill="#1C6B45">&#8594;</text><text x="70" y="544"><tspan fill="#8CFFC0">shipped</tspan><tspan fill="#43E08A"> Dynamics 365 + Trello connectors · </tspan><tspan fill="#8CFFC0">replaced</tspan><tspan fill="#43E08A"> Aeron with kafka+rocksdb</tspan></text></g></g><g opacity="0"><animate attributeName="opacity" from="0" to="1" dur="0.3s" begin="4.0s" fill="freeze"/><text x="44" y="582"><tspan fill="#43E08A">vansh</tspan><tspan fill="#2E9D63">@dsys</tspan><tspan fill="#1C6B45"> ~ </tspan><tspan fill="#8CFFC0">%</tspan></text><g clip-path="url(#c5)"><text x="186" y="582" fill="#D8FFEC" font-weight="700">vansh --help</text></g><g opacity="0"><animate attributeName="opacity" from="0" to="1" dur="0.4s" begin="4.55s" fill="freeze"/><text x="70" y="608"><tspan fill="#2E9D63">linkedin    </tspan><tspan fill="#8CFFC0">linkedin.com/in/vansh-vg</tspan></text><text x="70" y="632"><tspan fill="#2E9D63">email       </tspan><tspan fill="#8CFFC0">vansh012345gupta@gmail.com</tspan></text></g></g><g opacity="0"><animate attributeName="opacity" from="0" to="1" dur="0.3s" begin="5.2s" fill="freeze"/><text x="44" y="668"><tspan fill="#43E08A">vansh</tspan><tspan fill="#2E9D63">@dsys</tspan><tspan fill="#1C6B45"> ~ </tspan><tspan fill="#8CFFC0">%</tspan></text><rect x="190" y="655" width="10" height="18" fill="#43E08A"><animate attributeName="opacity" values="1;1;0;0;1" dur="1.1s" begin="5.5s" repeatCount="indefinite"/></rect></g></g><rect x="12" y="12" width="876" height="668" rx="16" fill="url(#scan)" clip-path="url(#frame)"/></svg>